<svg xmlns="http://www.w3.org/2000/svg" xmlns:xlink="http://www.w3.org/1999/xlink" width="1920" zoomAndPan="magnify" viewBox="0 0 1440 809.999993" height="1080" preserveAspectRatio="xMidYMid meet" version="1.0"><defs><g/><clipPath id="ad4f6410a7"><path d="M 1173 179 L 1283 179 L 1283 286 L 1173 286 Z M 1173 179 " clip-rule="nonzero"/></clipPath><clipPath id="d9e3d1526d"><path d="M 1151.21875 201.304688 L 1222.5 125.234375 L 1336.335938 231.898438 L 1265.054688 307.972656 Z M 1151.21875 201.304688 " clip-rule="nonzero"/></clipPath><clipPath id="80f5a43769"><path d="M 1151.21875 201.304688 L 1222.5 125.234375 L 1336.335938 231.898438 L 1265.054688 307.972656 Z M 1151.21875 201.304688 " clip-rule="nonzero"/></clipPath><clipPath id="d2765c921a"><path d="M 1225 124 L 1334 124 L 1334 231 L 1225 231 Z M 1225 124 " clip-rule="nonzero"/></clipPath><clipPath id="5ae2f4b40e"><path d="M 1202.699219 146.367188 L 1273.980469 70.292969 L 1387.816406 176.960938 L 1316.535156 253.03125 Z M 1202.699219 146.367188 " clip-rule="nonzero"/></clipPath><clipPath id="a029496346"><path d="M 1202.699219 146.367188 L 1273.980469 70.292969 L 1387.816406 176.960938 L 1316.535156 253.03125 Z M 1202.699219 146.367188 " clip-rule="nonzero"/></clipPath><clipPath id="38525f432b"><path d="M 1126.964844 265.316406 L 1210.390625 265.316406 L 1210.390625 587.25 L 1126.964844 587.25 Z M 1126.964844 265.316406 " clip-rule="nonzero"/></clipPath><clipPath id="e6423265e1"><path d="M 0.964844 0.316406 L 84.390625 0.316406 L 84.390625 322.25 L 0.964844 322.25 Z M 0.964844 0.316406 " clip-rule="nonzero"/></clipPath><clipPath id="bb1159ed24"><rect x="0" width="85" y="0" height="323"/></clipPath><clipPath id="e1afb240c8"><path d="M 614.457031 624.390625 L 693.382812 624.390625 L 693.382812 703.316406 L 614.457031 703.316406 Z M 614.457031 624.390625 " clip-rule="nonzero"/></clipPath><clipPath id="450abc2810"><path d="M 653.921875 624.390625 C 632.125 624.390625 614.457031 642.058594 614.457031 663.851562 C 614.457031 685.648438 632.125 703.316406 653.921875 703.316406 C 675.714844 703.316406 693.382812 685.648438 693.382812 663.851562 C 693.382812 642.058594 675.714844 624.390625 653.921875 624.390625 Z M 653.921875 624.390625 " clip-rule="nonzero"/></clipPath><clipPath id="a3fc878c2f"><path d="M 0.457031 0.390625 L 79.382812 0.390625 L 79.382812 79.316406 L 0.457031 79.316406 Z M 0.457031 0.390625 " clip-rule="nonzero"/></clipPath><clipPath id="cb4dd78b27"><path d="M 39.921875 0.390625 C 18.125 0.390625 0.457031 18.058594 0.457031 39.851562 C 0.457031 61.648438 18.125 79.316406 39.921875 79.316406 C 61.714844 79.316406 79.382812 61.648438 79.382812 39.851562 C 79.382812 18.058594 61.714844 0.390625 39.921875 0.390625 Z M 39.921875 0.390625 " clip-rule="nonzero"/></clipPath><clipPath id="8e96cf141c"><rect x="0" width="80" y="0" height="80"/></clipPath><clipPath id="103c4a6a61"><path d="M 634.40625 624.390625 L 713.332031 624.390625 L 713.332031 703.316406 L 634.40625 703.316406 Z M 634.40625 624.390625 " clip-rule="nonzero"/></clipPath><clipPath id="437aea26ca"><path d="M 673.871094 624.390625 C 652.074219 624.390625 634.40625 642.058594 634.40625 663.851562 C 634.40625 685.648438 652.074219 703.316406 673.871094 703.316406 C 695.664062 703.316406 713.332031 685.648438 713.332031 663.851562 C 713.332031 642.058594 695.664062 624.390625 673.871094 624.390625 Z M 673.871094 624.390625 " clip-rule="nonzero"/></clipPath><clipPath id="4f37680eea"><path d="M 0.40625 0.390625 L 79.332031 0.390625 L 79.332031 79.316406 L 0.40625 79.316406 Z M 0.40625 0.390625 " clip-rule="nonzero"/></clipPath><clipPath id="011eb56c60"><path d="M 39.871094 0.390625 C 18.074219 0.390625 0.40625 18.058594 0.40625 39.851562 C 0.40625 61.648438 18.074219 79.316406 39.871094 79.316406 C 61.664062 79.316406 79.332031 61.648438 79.332031 39.851562 C 79.332031 18.058594 61.664062 0.390625 39.871094 0.390625 Z M 39.871094 0.390625 " clip-rule="nonzero"/></clipPath><clipPath id="0986ce5644"><rect x="0" width="80" y="0" height="80"/></clipPath><clipPath id="0127321277"><path d="M 657.601562 624.390625 L 736.527344 624.390625 L 736.527344 703.316406 L 657.601562 703.316406 Z M 657.601562 624.390625 " clip-rule="nonzero"/></clipPath><clipPath id="874640a9ab"><path d="M 697.066406 624.390625 C 675.269531 624.390625 657.601562 642.058594 657.601562 663.851562 C 657.601562 685.648438 675.269531 703.316406 697.066406 703.316406 C 718.859375 703.316406 736.527344 685.648438 736.527344 663.851562 C 736.527344 642.058594 718.859375 624.390625 697.066406 624.390625 Z M 697.066406 624.390625 " clip-rule="nonzero"/></clipPath><clipPath id="4faa684eb5"><path d="M 0.601562 0.390625 L 79.527344 0.390625 L 79.527344 79.316406 L 0.601562 79.316406 Z M 0.601562 0.390625 " clip-rule="nonzero"/></clipPath><clipPath id="24f9fbc9f1"><path d="M 40.066406 0.390625 C 18.269531 0.390625 0.601562 18.058594 0.601562 39.851562 C 0.601562 61.648438 18.269531 79.316406 40.066406 79.316406 C 61.859375 79.316406 79.527344 61.648438 79.527344 39.851562 C 79.527344 18.058594 61.859375 0.390625 40.066406 0.390625 Z M 40.066406 0.390625 " clip-rule="nonzero"/></clipPath><clipPath id="a2b4180abb"><rect x="0" width="80" y="0" height="80"/></clipPath></defs><g fill="#ffffff" fill-opacity="1"><g transform="translate(102.610489, 587.843417)"><g><path d="M 120.53125 -426.59375 L 120.53125 0 L 35.21875 0 L 35.21875 -426.59375 Z M 120.53125 -426.59375 "/></g></g></g><g fill="#ffffff" fill-opacity="1"><g transform="translate(241.353582, 587.843417)"><g><path d="M 144.296875 4.578125 C 122.347656 4.578125 103.164062 -0.191406 86.75 -9.734375 C 70.332031 -19.273438 57.640625 -33.0625 48.671875 -51.09375 C 39.703125 -69.132812 35.21875 -90.660156 35.21875 -115.671875 L 35.21875 -316.078125 L 120.53125 -316.078125 L 120.53125 -130.84375 C 120.53125 -110.800781 125.632812 -95.242188 135.84375 -84.171875 C 146.0625 -73.097656 160.140625 -67.5625 178.078125 -67.5625 C 190.097656 -67.5625 200.738281 -70.140625 210 -75.296875 C 219.257812 -80.453125 226.515625 -88.039062 231.765625 -98.0625 C 237.015625 -108.082031 239.640625 -120.25 239.640625 -134.5625 L 239.640625 -316.078125 L 325.234375 -316.078125 L 325.234375 0 L 243.640625 0 L 242.5 -79.59375 L 249.65625 -79.59375 C 240.875 -52.875 227.84375 -32.164062 210.5625 -17.46875 C 193.289062 -2.769531 171.203125 4.578125 144.296875 4.578125 Z M 144.296875 4.578125 "/></g></g></g><g fill="#ffffff" fill-opacity="1"><g transform="translate(584.51491, 587.843417)"><g><path d="M 35.21875 0 L 35.21875 -316.078125 L 115.09375 -316.078125 L 118.53125 -239.0625 L 112.515625 -239.0625 C 117.472656 -258.144531 124.769531 -273.742188 134.40625 -285.859375 C 144.050781 -297.984375 155.363281 -306.910156 168.34375 -312.640625 C 181.320312 -318.367188 194.96875 -321.234375 209.28125 -321.234375 C 232.1875 -321.234375 251.035156 -314.070312 265.828125 -299.75 C 280.617188 -285.4375 291.070312 -263.867188 297.1875 -235.046875 L 287.453125 -235.046875 C 291.835938 -254.515625 299.328125 -270.59375 309.921875 -283.28125 C 320.515625 -295.976562 333.109375 -305.476562 347.703125 -311.78125 C 362.304688 -318.082031 377.816406 -321.234375 394.234375 -321.234375 C 413.703125 -321.234375 431.117188 -316.984375 446.484375 -308.484375 C 461.847656 -299.992188 473.96875 -287.679688 482.84375 -271.546875 C 491.71875 -255.421875 496.15625 -235.71875 496.15625 -212.4375 L 496.15625 0 L 410.5625 0 L 410.5625 -196.109375 C 410.5625 -214.242188 405.691406 -227.75 395.953125 -236.625 C 386.222656 -245.5 374.195312 -249.9375 359.875 -249.9375 C 349 -249.9375 339.597656 -247.597656 331.671875 -242.921875 C 323.753906 -238.242188 317.648438 -231.707031 313.359375 -223.3125 C 309.066406 -214.914062 306.921875 -204.992188 306.921875 -193.546875 L 306.921875 0 L 224.171875 0 L 224.171875 -198.6875 C 224.171875 -214.34375 219.539062 -226.796875 210.28125 -236.046875 C 201.03125 -245.304688 189.054688 -249.9375 174.359375 -249.9375 C 164.242188 -249.9375 155.128906 -247.644531 147.015625 -243.0625 C 138.898438 -238.488281 132.457031 -231.765625 127.6875 -222.890625 C 122.914062 -214.015625 120.53125 -203.085938 120.53125 -190.109375 L 120.53125 0 Z M 35.21875 0 "/></g></g></g><g fill="#ffffff" fill-opacity="1"><g transform="translate(755.819488, 696.563433)"><g><path d="M 7.5625 0 L 7.5625 -65.109375 L 30.71875 -65.109375 C 35.226562 -65.109375 38.976562 -64.34375 41.96875 -62.8125 C 44.957031 -61.28125 47.203125 -59.21875 48.703125 -56.625 C 50.203125 -54.03125 50.953125 -51.101562 50.953125 -47.84375 C 50.953125 -45.101562 50.46875 -42.820312 49.5 -41 C 48.539062 -39.1875 47.257812 -37.722656 45.65625 -36.609375 C 44.050781 -35.503906 42.257812 -34.660156 40.28125 -34.078125 L 40.28125 -33.5625 C 42.4375 -33.382812 44.519531 -32.660156 46.53125 -31.390625 C 48.539062 -30.128906 50.207031 -28.335938 51.53125 -26.015625 C 52.863281 -23.703125 53.53125 -20.882812 53.53125 -17.5625 C 53.53125 -14.1875 52.753906 -11.179688 51.203125 -8.546875 C 49.660156 -5.910156 47.257812 -3.828125 44 -2.296875 C 40.738281 -0.765625 36.53125 0 31.375 0 Z M 15.765625 -7.25 L 31.203125 -7.25 C 36.234375 -7.25 39.878906 -8.21875 42.140625 -10.15625 C 44.398438 -12.09375 45.53125 -14.5625 45.53125 -17.5625 C 45.53125 -19.78125 44.96875 -21.796875 43.84375 -23.609375 C 42.726562 -25.429688 41.132812 -26.875 39.0625 -27.9375 C 36.988281 -29 34.515625 -29.53125 31.640625 -29.53125 L 15.765625 -29.53125 Z M 15.765625 -36.53125 L 30.453125 -36.53125 C 32.867188 -36.53125 35.023438 -36.976562 36.921875 -37.875 C 38.816406 -38.78125 40.304688 -40.0625 41.390625 -41.71875 C 42.484375 -43.382812 43.03125 -45.335938 43.03125 -47.578125 C 43.03125 -50.523438 42.007812 -52.972656 39.96875 -54.921875 C 37.9375 -56.867188 34.835938 -57.84375 30.671875 -57.84375 L 15.765625 -57.84375 Z M 15.765625 -36.53125 "/></g></g></g><g fill="#ffffff" fill-opacity="1"><g transform="translate(811.460259, 696.563433)"><g><path d="M 26.78125 1.046875 C 22.125 1.046875 18.101562 0 14.71875 -2.09375 C 11.34375 -4.195312 8.75 -7.109375 6.9375 -10.828125 C 5.132812 -14.554688 4.234375 -18.882812 4.234375 -23.8125 C 4.234375 -28.738281 5.128906 -33.09375 6.921875 -36.875 C 8.710938 -40.664062 11.242188 -43.625 14.515625 -45.75 C 17.796875 -47.875 21.609375 -48.9375 25.953125 -48.9375 C 28.691406 -48.9375 31.328125 -48.476562 33.859375 -47.5625 C 36.390625 -46.644531 38.660156 -45.203125 40.671875 -43.234375 C 42.679688 -41.265625 44.269531 -38.734375 45.4375 -35.640625 C 46.601562 -32.554688 47.1875 -28.875 47.1875 -24.59375 L 47.1875 -21.578125 L 9.265625 -21.578125 L 9.265625 -28.140625 L 42.953125 -28.140625 L 39.40625 -25.78125 C 39.40625 -28.957031 38.890625 -31.765625 37.859375 -34.203125 C 36.828125 -36.648438 35.3125 -38.566406 33.3125 -39.953125 C 31.320312 -41.335938 28.867188 -42.03125 25.953125 -42.03125 C 23.066406 -42.03125 20.582031 -41.332031 18.5 -39.9375 C 16.414062 -38.539062 14.820312 -36.679688 13.71875 -34.359375 C 12.613281 -32.046875 12.0625 -29.503906 12.0625 -26.734375 L 12.0625 -22.640625 C 12.0625 -19.109375 12.664062 -16.085938 13.875 -13.578125 C 15.082031 -11.078125 16.800781 -9.171875 19.03125 -7.859375 C 21.257812 -6.554688 23.859375 -5.90625 26.828125 -5.90625 C 28.804688 -5.90625 30.585938 -6.191406 32.171875 -6.765625 C 33.765625 -7.347656 35.128906 -8.207031 36.265625 -9.34375 C 37.398438 -10.476562 38.257812 -11.878906 38.84375 -13.546875 L 46.40625 -11.890625 C 45.675781 -9.347656 44.40625 -7.101562 42.59375 -5.15625 C 40.789062 -3.207031 38.539062 -1.6875 35.84375 -0.59375 C 33.15625 0.496094 30.132812 1.046875 26.78125 1.046875 Z M 26.78125 1.046875 "/></g></g></g><g fill="#ffffff" fill-opacity="1"><g transform="translate(860.110979, 696.563433)"><g><path d="M 26.046875 -48.234375 L 26.046875 -41.59375 L 0.828125 -41.59375 L 0.828125 -48.234375 Z M 8.34375 -60.078125 L 16.125 -60.078125 L 16.125 -12.328125 C 16.125 -10.253906 16.550781 -8.742188 17.40625 -7.796875 C 18.269531 -6.847656 19.722656 -6.375 21.765625 -6.375 C 22.285156 -6.375 22.929688 -6.414062 23.703125 -6.5 C 24.472656 -6.59375 25.179688 -6.679688 25.828125 -6.765625 L 27.09375 -0.21875 C 26.269531 0.0078125 25.359375 0.179688 24.359375 0.296875 C 23.359375 0.421875 22.375 0.484375 21.40625 0.484375 C 17.238281 0.484375 14.019531 -0.578125 11.75 -2.703125 C 9.476562 -4.835938 8.34375 -7.835938 8.34375 -11.703125 Z M 8.34375 -60.078125 "/></g></g></g><g fill="#ffffff" fill-opacity="1"><g transform="translate(886.480912, 696.563433)"><g><path d="M 20.359375 1.046875 C 17.273438 1.046875 14.488281 0.476562 12 -0.65625 C 9.507812 -1.789062 7.523438 -3.460938 6.046875 -5.671875 C 4.578125 -7.890625 3.84375 -10.585938 3.84375 -13.765625 C 3.84375 -16.535156 4.390625 -18.773438 5.484375 -20.484375 C 6.578125 -22.203125 8.03125 -23.5625 9.84375 -24.5625 C 11.664062 -25.570312 13.691406 -26.328125 15.921875 -26.828125 C 18.148438 -27.328125 20.398438 -27.71875 22.671875 -28 C 25.617188 -28.382812 27.988281 -28.675781 29.78125 -28.875 C 31.570312 -29.082031 32.894531 -29.425781 33.75 -29.90625 C 34.613281 -30.382812 35.046875 -31.222656 35.046875 -32.421875 L 35.046875 -32.71875 C 35.046875 -34.675781 34.65625 -36.351562 33.875 -37.75 C 33.101562 -39.144531 31.960938 -40.210938 30.453125 -40.953125 C 28.941406 -41.703125 27.0625 -42.078125 24.8125 -42.078125 C 22.507812 -42.078125 20.535156 -41.71875 18.890625 -41 C 17.242188 -40.289062 15.90625 -39.375 14.875 -38.25 C 13.84375 -37.132812 13.125 -35.945312 12.71875 -34.6875 L 5.15625 -36.65625 C 6.144531 -39.601562 7.644531 -41.972656 9.65625 -43.765625 C 11.664062 -45.554688 13.972656 -46.863281 16.578125 -47.6875 C 19.191406 -48.519531 21.878906 -48.9375 24.640625 -48.9375 C 26.503906 -48.9375 28.484375 -48.695312 30.578125 -48.21875 C 32.679688 -47.738281 34.65625 -46.898438 36.5 -45.703125 C 38.351562 -44.503906 39.863281 -42.804688 41.03125 -40.609375 C 42.195312 -38.410156 42.78125 -35.578125 42.78125 -32.109375 L 42.78125 0 L 35.125 0 L 35.125 -6.640625 L 34.6875 -6.640625 C 34.132812 -5.503906 33.257812 -4.335938 32.0625 -3.140625 C 30.875 -1.953125 29.316406 -0.957031 27.390625 -0.15625 C 25.472656 0.644531 23.128906 1.046875 20.359375 1.046875 Z M 21.625 -5.859375 C 24.570312 -5.859375 27.035156 -6.414062 29.015625 -7.53125 C 30.992188 -8.65625 32.492188 -10.117188 33.515625 -11.921875 C 34.535156 -13.734375 35.046875 -15.628906 35.046875 -17.609375 L 35.046875 -24.15625 C 34.722656 -23.8125 34.054688 -23.492188 33.046875 -23.203125 C 32.046875 -22.910156 30.882812 -22.644531 29.5625 -22.40625 C 28.238281 -22.175781 26.925781 -21.976562 25.625 -21.8125 C 24.332031 -21.65625 23.234375 -21.519531 22.328125 -21.40625 C 20.460938 -21.175781 18.710938 -20.773438 17.078125 -20.203125 C 15.453125 -19.640625 14.144531 -18.816406 13.15625 -17.734375 C 12.164062 -16.660156 11.671875 -15.207031 11.671875 -13.375 C 11.671875 -11.738281 12.097656 -10.359375 12.953125 -9.234375 C 13.816406 -8.117188 14.988281 -7.273438 16.46875 -6.703125 C 17.957031 -6.140625 19.675781 -5.859375 21.625 -5.859375 Z M 21.625 -5.859375 "/></g></g></g><g fill="#ffffff" fill-opacity="1"><g transform="translate(933.25305, 696.563433)"><g/></g></g><g fill="#ffffff" fill-opacity="1"><g transform="translate(955.210507, 696.563433)"><g><path d="M 19.703125 0 L 1.96875 -65.109375 L 10.3125 -65.109375 L 20.671875 -25 C 21.222656 -22.894531 21.742188 -20.75 22.234375 -18.5625 C 22.734375 -16.382812 23.210938 -14.1875 23.671875 -11.96875 C 24.140625 -9.757812 24.582031 -7.488281 25 -5.15625 L 24.03125 -5.15625 C 24.46875 -7.488281 24.914062 -9.757812 25.375 -11.96875 C 25.84375 -14.1875 26.335938 -16.382812 26.859375 -18.5625 C 27.390625 -20.75 27.929688 -22.894531 28.484375 -25 L 39.0625 -65.109375 L 48.40625 -65.109375 L 58.90625 -25 C 59.476562 -22.894531 60.019531 -20.75 60.53125 -18.5625 C 61.039062 -16.382812 61.539062 -14.1875 62.03125 -11.96875 C 62.53125 -9.757812 63 -7.488281 63.4375 -5.15625 L 62.3125 -5.15625 C 62.75 -7.488281 63.195312 -9.757812 63.65625 -11.96875 C 64.125 -14.1875 64.617188 -16.382812 65.140625 -18.5625 C 65.671875 -20.75 66.195312 -22.894531 66.71875 -25 L 77.03125 -65.109375 L 85.515625 -65.109375 L 67.6875 0 L 58.109375 0 L 46.890625 -41.421875 C 46.160156 -44.128906 45.457031 -47.039062 44.78125 -50.15625 C 44.113281 -53.269531 43.457031 -56.753906 42.8125 -60.609375 L 44.5625 -60.609375 C 43.925781 -56.929688 43.296875 -53.570312 42.671875 -50.53125 C 42.046875 -47.488281 41.320312 -44.453125 40.5 -41.421875 L 29.3125 0 Z M 19.703125 0 "/></g></g></g><g fill="#ffffff" fill-opacity="1"><g transform="translate(1040.078423, 696.563433)"><g><path d="M 26.296875 1.046875 C 21.898438 1.046875 18.046875 0.00390625 14.734375 -2.078125 C 11.429688 -4.160156 8.851562 -7.078125 7 -10.828125 C 5.15625 -14.585938 4.234375 -18.929688 4.234375 -23.859375 C 4.234375 -28.867188 5.15625 -33.257812 7 -37.03125 C 8.851562 -40.800781 11.429688 -43.726562 14.734375 -45.8125 C 18.046875 -47.894531 21.898438 -48.9375 26.296875 -48.9375 C 30.703125 -48.9375 34.5625 -47.894531 37.875 -45.8125 C 41.195312 -43.726562 43.78125 -40.800781 45.625 -37.03125 C 47.476562 -33.257812 48.40625 -28.867188 48.40625 -23.859375 C 48.40625 -18.929688 47.476562 -14.585938 45.625 -10.828125 C 43.78125 -7.078125 41.195312 -4.160156 37.875 -2.078125 C 34.5625 0.00390625 30.703125 1.046875 26.296875 1.046875 Z M 26.296875 -5.90625 C 29.503906 -5.90625 32.164062 -6.71875 34.28125 -8.34375 C 36.394531 -9.976562 37.96875 -12.15625 39 -14.875 C 40.03125 -17.601562 40.546875 -20.597656 40.546875 -23.859375 C 40.546875 -27.148438 40.03125 -30.171875 39 -32.921875 C 37.96875 -35.671875 36.394531 -37.867188 34.28125 -39.515625 C 32.164062 -41.160156 29.503906 -41.984375 26.296875 -41.984375 C 23.128906 -41.984375 20.492188 -41.160156 18.390625 -39.515625 C 16.296875 -37.867188 14.722656 -35.675781 13.671875 -32.9375 C 12.628906 -30.207031 12.109375 -27.179688 12.109375 -23.859375 C 12.109375 -20.597656 12.628906 -17.601562 13.671875 -14.875 C 14.722656 -12.15625 16.289062 -9.976562 18.375 -8.34375 C 20.457031 -6.71875 23.097656 -5.90625 26.296875 -5.90625 Z M 26.296875 -5.90625 "/></g></g></g><g fill="#ffffff" fill-opacity="1"><g transform="translate(1090.127165, 696.563433)"><g><path d="M 6.59375 0 L 6.59375 -48.234375 L 14.0625 -48.234375 L 14.0625 -40.8125 L 14.5 -40.8125 C 15.40625 -43.257812 16.960938 -45.222656 19.171875 -46.703125 C 21.390625 -48.191406 23.941406 -48.9375 26.828125 -48.9375 C 27.441406 -48.9375 28.125 -48.921875 28.875 -48.890625 C 29.632812 -48.859375 30.21875 -48.832031 30.625 -48.8125 L 30.625 -40.984375 C 30.394531 -41.046875 29.820312 -41.132812 28.90625 -41.25 C 27.988281 -41.363281 27.003906 -41.421875 25.953125 -41.421875 C 23.765625 -41.421875 21.789062 -40.953125 20.03125 -40.015625 C 18.269531 -39.085938 16.882812 -37.78125 15.875 -36.09375 C 14.875 -34.40625 14.375 -32.410156 14.375 -30.109375 L 14.375 0 Z M 6.59375 0 "/></g></g></g><g fill="#ffffff" fill-opacity="1"><g transform="translate(1120.123181, 696.563433)"><g><path d="M 13.890625 -17.34375 L 13.890625 -26.875 L 15.125 -26.875 L 36.140625 -48.234375 L 45.828125 -48.234375 L 23.28125 -25.34375 L 22.453125 -25.34375 Z M 6.59375 0 L 6.59375 -65.109375 L 14.375 -65.109375 L 14.375 0 Z M 37.453125 0 L 18.703125 -23.640625 L 24.203125 -29.09375 L 47.359375 0 Z M 37.453125 0 "/></g></g></g><g fill="#ffffff" fill-opacity="1"><g transform="translate(1165.80314, 696.563433)"><g><path d="M 23.0625 1.046875 C 19.75 1.046875 16.78125 0.546875 14.15625 -0.453125 C 11.53125 -1.460938 9.375 -2.957031 7.6875 -4.9375 C 6 -6.914062 4.90625 -9.363281 4.40625 -12.28125 L 11.84375 -13.671875 C 12.457031 -10.960938 13.71875 -8.957031 15.625 -7.65625 C 17.53125 -6.363281 19.984375 -5.71875 22.984375 -5.71875 C 26.328125 -5.71875 29 -6.4375 31 -7.875 C 33 -9.320312 34 -11.050781 34 -13.0625 C 34 -14.75 33.390625 -16.144531 32.171875 -17.25 C 30.960938 -18.363281 29.195312 -19.179688 26.875 -19.703125 L 18.875 -21.625 C 14.476562 -22.644531 11.203125 -24.253906 9.046875 -26.453125 C 6.890625 -28.648438 5.8125 -31.457031 5.8125 -34.875 C 5.8125 -37.632812 6.578125 -40.070312 8.109375 -42.1875 C 9.640625 -44.300781 11.742188 -45.953125 14.421875 -47.140625 C 17.097656 -48.335938 20.15625 -48.9375 23.59375 -48.9375 C 26.914062 -48.9375 29.769531 -48.410156 32.15625 -47.359375 C 34.539062 -46.316406 36.46875 -44.863281 37.9375 -43 C 39.414062 -41.132812 40.445312 -38.976562 41.03125 -36.53125 L 33.90625 -35.078125 C 33.382812 -36.972656 32.3125 -38.65625 30.6875 -40.125 C 29.070312 -41.601562 26.722656 -42.34375 23.640625 -42.34375 C 20.722656 -42.34375 18.320312 -41.671875 16.4375 -40.328125 C 14.5625 -38.984375 13.625 -37.296875 13.625 -35.265625 C 13.625 -33.453125 14.28125 -32.003906 15.59375 -30.921875 C 16.90625 -29.847656 18.914062 -28.992188 21.625 -28.359375 L 29.015625 -26.609375 C 33.441406 -25.554688 36.707031 -23.945312 38.8125 -21.78125 C 40.925781 -19.613281 41.984375 -16.851562 41.984375 -13.5 C 41.984375 -10.644531 41.179688 -8.125 39.578125 -5.9375 C 37.984375 -3.757812 35.765625 -2.050781 32.921875 -0.8125 C 30.078125 0.425781 26.789062 1.046875 23.0625 1.046875 Z M 23.0625 1.046875 "/></g></g></g><g clip-path="url(#ad4f6410a7)"><g clip-path="url(#d9e3d1526d)"><g clip-path="url(#80f5a43769)"><path fill="#18cb96" d="M 1280.597656 179.207031 L 1187.125 181.773438 C 1169.070312 182.269531 1168.554688 217.546875 1189.917969 216.589844 L 1248.011719 213.988281 L 1247.78125 272.644531 C 1247.710938 290.507812 1282.496094 289.890625 1282.183594 271.765625 Z M 1280.597656 179.207031 " fill-opacity="1" fill-rule="nonzero"/></g></g></g><g clip-path="url(#d2765c921a)"><g clip-path="url(#5ae2f4b40e)"><g clip-path="url(#a029496346)"><path fill="#18cb96" d="M 1332.078125 124.269531 L 1238.605469 126.832031 C 1220.546875 127.328125 1220.03125 162.605469 1241.398438 161.648438 L 1299.488281 159.046875 L 1299.261719 217.707031 C 1299.191406 235.570312 1333.972656 234.953125 1333.664062 216.824219 Z M 1332.078125 124.269531 " fill-opacity="1" fill-rule="nonzero"/></g></g></g><g clip-path="url(#38525f432b)"><g transform="matrix(1, 0, 0, 1, 1126, 265)"><g clip-path="url(#bb1159ed24)"><g clip-path="url(#e6423265e1)"><path fill="#ffffff" d="M 0.964844 0.316406 L 84.390625 0.316406 L 84.390625 322.289062 L 0.964844 322.289062 Z M 0.964844 0.316406 " fill-opacity="1" fill-rule="nonzero"/></g></g></g></g><g clip-path="url(#e1afb240c8)"><g clip-path="url(#450abc2810)"><g transform="matrix(1, 0, 0, 1, 614, 624)"><g clip-path="url(#8e96cf141c)"><g clip-path="url(#a3fc878c2f)"><g clip-path="url(#cb4dd78b27)"><path fill="#5d3395" d="M 0.457031 0.390625 L 79.382812 0.390625 L 79.382812 79.316406 L 0.457031 79.316406 Z M 0.457031 0.390625 " fill-opacity="1" fill-rule="nonzero"/></g></g></g></g></g></g><g clip-path="url(#103c4a6a61)"><g clip-path="url(#437aea26ca)"><g transform="matrix(1, 0, 0, 1, 634, 624)"><g clip-path="url(#0986ce5644)"><g clip-path="url(#4f37680eea)"><g clip-path="url(#011eb56c60)"><path fill="#1f98ef" d="M 0.40625 0.390625 L 79.332031 0.390625 L 79.332031 79.316406 L 0.40625 79.316406 Z M 0.40625 0.390625 " fill-opacity="1" fill-rule="nonzero"/></g></g></g></g></g></g><g clip-path="url(#0127321277)"><g clip-path="url(#874640a9ab)"><g transform="matrix(1, 0, 0, 1, 657, 624)"><g clip-path="url(#a2b4180abb)"><g clip-path="url(#4faa684eb5)"><g clip-path="url(#24f9fbc9f1)"><path fill="#18cb96" d="M 0.601562 0.390625 L 79.527344 0.390625 L 79.527344 79.316406 L 0.601562 79.316406 Z M 0.601562 0.390625 " fill-opacity="1" fill-rule="nonzero"/></g></g></g></g></g></g></svg>