<svg xmlns="http://www.w3.org/2000/svg" xmlns:xlink="http://www.w3.org/1999/xlink" width="2000" zoomAndPan="magnify" viewBox="0 0 1500 1499.999933" height="2000" preserveAspectRatio="xMidYMid meet" version="1.0"><defs><clipPath id="4e982bca9e"><path d="M 70 564 L 902 564 L 902 1388 L 70 1388 Z M 70 564 " clip-rule="nonzero"/></clipPath><clipPath id="46703fcafc"><path d="M -104.25 717.941406 L 460.3125 136.34375 L 1330.003906 980.5625 L 765.445312 1562.15625 Z M -104.25 717.941406 " clip-rule="nonzero"/></clipPath><clipPath id="83577439e5"><path d="M -104.25 717.941406 L 460.3125 136.34375 L 1330.003906 980.5625 L 765.445312 1562.15625 Z M -104.25 717.941406 " clip-rule="nonzero"/></clipPath><clipPath id="5ab0eae476"><path d="M 477 145 L 1309 145 L 1309 969 L 477 969 Z M 477 145 " clip-rule="nonzero"/></clipPath><clipPath id="bd16eb9ef3"><path d="M 302.253906 299.167969 L 866.816406 -282.425781 L 1736.507812 561.789062 L 1171.949219 1143.386719 Z M 302.253906 299.167969 " clip-rule="nonzero"/></clipPath><clipPath id="757c525f41"><path d="M 302.253906 299.167969 L 866.816406 -282.425781 L 1736.507812 561.789062 L 1171.949219 1143.386719 Z M 302.253906 299.167969 " clip-rule="nonzero"/></clipPath><clipPath id="8af4b749fe"><rect x="0" width="1455" y="0" height="1457"/></clipPath></defs><g transform="matrix(1, 0, 0, 1, 45, 0.000000000000112861)"><g clip-path="url(#8af4b749fe)"><g clip-path="url(#4e982bca9e)"><g clip-path="url(#46703fcafc)"><g clip-path="url(#83577439e5)"><path fill="#18cb96" d="M 901.589844 564.367188 L 176.726562 571.460938 C 36.714844 572.828125 27.890625 846.183594 193.625 841.695312 L 644.246094 829.472656 L 634.441406 1284.105469 C 631.457031 1422.539062 901.140625 1422.519531 901.214844 1281.976562 Z M 901.589844 564.367188 " fill-opacity="1" fill-rule="nonzero"/></g></g></g><g clip-path="url(#5ab0eae476)"><g clip-path="url(#bd16eb9ef3)"><g clip-path="url(#757c525f41)"><path fill="#18cb96" d="M 1308.09375 145.59375 L 583.230469 152.6875 C 443.21875 154.058594 434.394531 427.414062 600.128906 422.925781 L 1050.75 410.703125 L 1040.945312 865.332031 C 1037.960938 1003.769531 1307.644531 1003.746094 1307.71875 863.207031 Z M 1308.09375 145.59375 " fill-opacity="1" fill-rule="nonzero"/></g></g></g></g></g></svg>